<svg xmlns="http://www.w3.org/2000/svg" fill="none" viewBox="226.06 146 571.46 732"><rect width="1024" height="1024" fill="none"></rect><path d="M456.818 646.182L463.391 640.672L794.801 637.812L796.86 646.182L796.863 646.17C796.408 647.955 795.718 649.686 794.801 651.316C791.963 656.358 785.775 659.938 773.397 667.099L453.419 852.221C421.551 870.658 405.618 879.876 395.77 877.681C387.249 875.782 380.261 869.713 377.186 861.542C373.634 852.099 380.529 835.031 394.319 800.895L456.818 646.182Z" fill="#7957FF"></path><path d="M796.86 646.182H456.818L454.812 632.094L557.75 380.469L566.165 375.754L781.609 615.136C781.947 615.511 782.279 615.88 782.604 616.242C791.508 626.14 795.998 631.279 797.102 636.751C797.737 639.896 797.644 643.119 796.86 646.182Z" fill="#18B6AA"></path><path d="M568.75 171.558L250.256 354.896C237.853 362.036 231.651 365.606 228.802 370.646C226.304 375.066 225.478 380.236 226.474 385.214C227.611 390.891 232.392 396.216 241.953 406.865L456.818 646.183L566.165 375.755L627.784 222.901C641.492 188.894 648.347 171.89 644.8 162.459C641.731 154.297 634.756 148.231 626.248 146.324C616.416 144.119 600.528 153.265 568.75 171.558Z" fill="#F845C6"></path></svg>
